<svg width="307" height="211" viewBox="0 0 307 211" fill="none" xmlns="http://www.w3.org/2000/svg">
<path d="M4.00098 121.017C19.6676 115.017 52.201 100.017 57.001 88.0175C77.501 60.5175 114.201 5.2175 97.001 4.0175C79.801 2.8175 54.8343 64.5175 44.501 95.5175L11.501 194.018C9.83431 200.351 10.201 211.118 25.001 203.518C43.501 194.018 55.001 151.518 51.001 145.518C47.801 140.718 28.501 130 16.501 130.518C4.50098 131.035 110.101 104.218 112.501 103.018C115.501 101.518 72.501 154.518 96.501 149.018C115.701 144.618 139.501 115.518 149.001 101.518C139.334 119.184 123.701 153.418 138.501 149.018C157.001 143.518 199.501 99.5176 201.001 99.5176C202.501 99.5176 176.001 146.518 176.501 147.018C177.001 147.518 224.001 96.0176 234.501 101.518C235.501 104.351 236.601 111.318 233.001 116.518C228.501 123.018 208.001 153.018 229.501 151.018C246.701 149.418 285.334 120.018 302.501 105.518" stroke="#F0336F" stroke-width="8" stroke-linecap="round"/>
</svg>
